<?xml version="1.0" encoding="UTF-8" standalone="no"?>
<!-- Created with Inkscape (http://www.inkscape.org/) -->
<svg id="svg2" xmlns:rdf="http://www.w3.org/1999/02/22-rdf-syntax-ns#" xmlns="http://www.w3.org/2000/svg" height="2.8236mm" width="2.6603mm" version="1.1" xmlns:cc="http://creativecommons.org/ns#" xmlns:dc="http://purl.org/dc/elements/1.1/" viewBox="0 0 9.42627 10.00488">
<metadata id="metadata7">
<rdf:RDF>
<cc:Work rdf:about="">
<dc:format>image/svg+xml</dc:format>
<dc:type rdf:resource="http://purl.org/dc/dcmitype/StillImage"/>
<dc:title/>
</cc:Work>
</rdf:RDF>
</metadata>
<g id="layer1" transform="translate(811.5 -210.42)">
<g id="text3336" fill="#fff">
<path id="path3341" fill="#fff" d="m-802.07 215v4.9512q0 0.19775-0.13916 0.33691t-0.33691 0.13916h-4.4531v-3.2666q0-0.15381-0.10986-0.25635-0.10986-0.10986-0.25635-0.10986h-1.4502q-0.14649 0-0.25635 0.10986-0.10254 0.10254-0.10254 0.25635v3.2666h-1.8457q-0.19043 0-0.33692-0.13916-0.13916-0.13916-0.13916-0.33691v-4.9512q0-0.19776 0.10254-0.43213 0.10254-0.23438 0.24902-0.36621l4.0137-3.6475q0.13916-0.13184 0.34423-0.13184 0.21241 0 0.35889 0.13184l4.0064 3.6475q0.14648 0.13183 0.24902 0.36621 0.10254 0.23437 0.10254 0.43213zm-2.6514 2.2412h-0.95947v0.44678q0 0.1831 0.12451 0.31494 0.13184 0.12451 0.31494 0.12451h0.52002v-0.88623zm0-1.4502h-0.52002q-0.1831 0-0.31494 0.13184-0.12451 0.12451-0.12451 0.30762v0.59326h0.95947v-1.0327zm1.377 1.4502h-0.95948v0.88623h0.52002q0.18311 0 0.30762-0.12451 0.13184-0.13184 0.13184-0.31494v-0.44678zm0-1.0107q0-0.18311-0.13184-0.30762-0.12451-0.13184-0.30762-0.13184h-0.52002v1.0327h0.95948v-0.59326z"/>
</g>
</g>
</svg>
