<?xml version="1.0" encoding="UTF-8" standalone="no"?>
<!-- Created with Inkscape (http://www.inkscape.org/) -->

<svg
   xmlns:dc="http://purl.org/dc/elements/1.1/"
   xmlns:cc="http://creativecommons.org/ns#"
   xmlns:rdf="http://www.w3.org/1999/02/22-rdf-syntax-ns#"
   xmlns:svg="http://www.w3.org/2000/svg"
   xmlns="http://www.w3.org/2000/svg"
   xmlns:xlink="http://www.w3.org/1999/xlink"
   xmlns:sodipodi="http://sodipodi.sourceforge.net/DTD/sodipodi-0.dtd"
   xmlns:inkscape="http://www.inkscape.org/namespaces/inkscape"
   height="1024"
   width="783"
   version="1.1"
   id="svg2"
   inkscape:version="0.91 r13725"
   sodipodi:docname="spacekid-portrait-4x3.svg">
  <sodipodi:namedview
     pagecolor="#ffffff"
     bordercolor="#666666"
     borderopacity="1"
     objecttolerance="10"
     gridtolerance="10"
     guidetolerance="10"
     inkscape:pageopacity="0"
     inkscape:pageshadow="2"
     inkscape:window-width="1920"
     inkscape:window-height="1017"
     id="namedview100"
     showgrid="false"
     inkscape:zoom="0.43714286"
     inkscape:cx="164.60976"
     inkscape:cy="640.10389"
     inkscape:window-x="0"
     inkscape:window-y="27"
     inkscape:window-maximized="1"
     inkscape:current-layer="svg2"
     fit-margin-top="0"
     fit-margin-left="0"
     fit-margin-right="0"
     fit-margin-bottom="0" />
  <defs
     id="defs4">
    <radialGradient
       id="radialGradient5361"
       xlink:href="#linearGradient5316"
       gradientUnits="userSpaceOnUse"
       cy="525.27002"
       cx="591.59003"
       gradientTransform="matrix(1.1100367,0,0,1.0957322,-65.097001,-26.562694)"
       r="644.65997" />
    <linearGradient
       id="linearGradient5316">
      <stop
         stop-color="#FFF"
         offset="0"
         id="stop8" />
      <stop
         stop-color="#170b28"
         offset="1"
         id="stop10" />
    </linearGradient>
    <radialGradient
       id="radialGradient5363"
       xlink:href="#linearGradient5316"
       gradientUnits="userSpaceOnUse"
       cy="525.27002"
       cx="591.59003"
       gradientTransform="matrix(1.0289011,0,0,1.0156422,-17.097689,15.659791)"
       r="644.65997" />
    <radialGradient
       id="radialGradient5365"
       xlink:href="#linearGradient5316"
       gradientUnits="userSpaceOnUse"
       cy="525.27002"
       cx="591.59003"
       gradientTransform="matrix(0.8782207,0,0,0.86690354,72.043888,96.930119)"
       r="644.65997" />
    <linearGradient
       id="linearGradient4003"
       y2="795.59998"
       xlink:href="#linearGradient4763"
       gradientUnits="userSpaceOnUse"
       x2="616.19"
       gradientTransform="matrix(0,-0.82677416,0.97046899,0,-3138.3606,2410.4934)"
       y1="224.75"
       x1="429.81" />
    <linearGradient
       id="linearGradient4763">
      <stop
         stop-color="#8637ff"
         offset="0"
         id="stop16" />
      <stop
         stop-color="#881acf"
         stop-opacity="0.16666667"
         offset="0.5"
         id="stop18" />
      <stop
         stop-color="#80A"
         stop-opacity="0"
         offset="1"
         id="stop20" />
    </linearGradient>
    <linearGradient
       id="linearGradient4005"
       y2="54.022999"
       xlink:href="#linearGradient4883"
       gradientUnits="userSpaceOnUse"
       x2="1047.6"
       gradientTransform="matrix(1.3452634,0,0,1.3452634,-3992.051,1315.2032)"
       y1="544.02002"
       x1="699.95001" />
    <linearGradient
       id="linearGradient4883">
      <stop
         stop-color="#7f00f4"
         offset="0"
         id="stop24" />
      <stop
         stop-color="#7f00f4"
         stop-opacity="0"
         offset="1"
         id="stop26" />
    </linearGradient>
    <linearGradient
       id="linearGradient4007"
       y2="661.34998"
       xlink:href="#linearGradient4763"
       gradientUnits="userSpaceOnUse"
       x2="727.71002"
       gradientTransform="matrix(0,-1.112229,1.3055364,0,-2946.3449,2530.9363)"
       y1="102.86"
       x1="425.25" />
    <linearGradient
       id="linearGradient4009"
       y2="155.71001"
       xlink:href="#linearGradient4883"
       gradientUnits="userSpaceOnUse"
       x2="1364.4"
       gradientTransform="matrix(1.3452634,0,0,1.3452634,-3846.7626,1266.7737)"
       y1="527.71002"
       x1="771.92999" />
    <linearGradient
       id="linearGradient4011"
       y2="346.44"
       xlink:href="#linearGradient4763"
       gradientUnits="userSpaceOnUse"
       x2="1076"
       gradientTransform="matrix(0,-1.112229,1.3055364,0,-2946.3449,2530.9363)"
       y1="346.44"
       x1="410.03" />
    <linearGradient
       id="linearGradient4013"
       y2="-470.23999"
       xlink:href="#linearGradient4763"
       gradientUnits="userSpaceOnUse"
       x2="1163.6"
       gradientTransform="matrix(0,-1.112229,1.3055364,0,-2946.3449,2530.9363)"
       y1="-419.01999"
       x1="403.63" />
    <linearGradient
       id="linearGradient4015"
       y2="-58.578999"
       xlink:href="#linearGradient4763"
       gradientUnits="userSpaceOnUse"
       x2="1101.2"
       gradientTransform="matrix(0,-1.112229,1.3055364,0,-2929.2225,2521.4238)"
       y1="-58.578999"
       x1="283.98999" />
    <linearGradient
       id="linearGradient4017"
       y2="181.92999"
       xlink:href="#linearGradient4883"
       gradientUnits="userSpaceOnUse"
       x2="646.35999"
       gradientTransform="matrix(1.3452634,0,0,1.3452634,-3804.9078,1221.1139)"
       y1="597.14001"
       x1="632.21997" />
    <linearGradient
       id="linearGradient4019"
       y2="-339.79999"
       xlink:href="#linearGradient4883"
       gradientUnits="userSpaceOnUse"
       x2="1012.1"
       gradientTransform="matrix(0,-1.112229,1.3055364,0,-2982.4922,2447.2267)"
       y1="54.853001"
       x1="158.66" />
    <linearGradient
       id="linearGradient4021"
       y2="-691.13"
       xlink:href="#linearGradient4763"
       gradientUnits="userSpaceOnUse"
       x2="863.90997"
       gradientTransform="matrix(0,-1.112229,1.3055364,0,-2946.3449,2530.9363)"
       y1="-189.19"
       x1="367.84" />
    <linearGradient
       id="linearGradient4023"
       y2="116.02"
       xlink:href="#linearGradient4883"
       gradientUnits="userSpaceOnUse"
       x2="30.250999"
       gradientTransform="matrix(1.3452634,0,0,1.3452634,-3846.7626,1266.7737)"
       y1="578.02002"
       x1="538.71002" />
    <linearGradient
       id="linearGradient4025"
       y2="414.89001"
       xlink:href="#linearGradient4883"
       gradientUnits="userSpaceOnUse"
       x2="-60.110001"
       gradientTransform="matrix(1.3452634,0,0,1.3452634,-3846.7626,1219.2115)"
       y1="584.89001"
       x1="432.04999" />
    <linearGradient
       id="linearGradient4027"
       y2="-759.81"
       xlink:href="#linearGradient4763"
       gradientUnits="userSpaceOnUse"
       x2="520.96997"
       gradientTransform="matrix(0,-1.112229,1.3055364,0,-2946.3449,2483.374)"
       y1="-309.95001"
       x1="369.76001" />
    <linearGradient
       id="linearGradient4029"
       y2="-339.79999"
       xlink:href="#linearGradient4883"
       gradientUnits="userSpaceOnUse"
       x2="1012.1"
       gradientTransform="matrix(0,-1.112229,-1.3055364,0,-3076.3447,2551.8637)"
       y1="54.853001"
       x1="158.66" />
    <radialGradient
       id="radialGradient3987"
       gradientUnits="userSpaceOnUse"
       cy="433.92001"
       cx="613.51001"
       gradientTransform="matrix(1.1739372,0,0,0.21958887,-20.40624,339.88754)"
       r="375.41">
      <stop
         stop-color="#410060"
         offset="0"
         id="stop41" />
      <stop
         stop-color="#410060"
         stop-opacity="0"
         offset="1"
         id="stop43" />
    </radialGradient>
    <radialGradient
       id="radialGradient3141"
       gradientUnits="userSpaceOnUse"
       cy="498.39999"
       cx="564.56"
       gradientTransform="matrix(1.044262,0,0,1.0526129,81.219124,558.9839)"
       r="700">
      <stop
         stop-color="#580085"
         offset="0"
         id="stop46" />
      <stop
         stop-color="#1a0022"
         stop-opacity="0"
         offset="1"
         id="stop48" />
    </radialGradient>
    <filter
       inkscape:collect="always"
       style="color-interpolation-filters:sRGB"
       id="filter4420"
       x="-0.055354699"
       width="1.1107094"
       y="-0.36126915"
       height="1.7225384">
      <feGaussianBlur
         inkscape:collect="always"
         stdDeviation="16.625707"
         id="feGaussianBlur4422" />
    </filter>
  </defs>
  <metadata
     id="metadata50">
    <rdf:RDF>
      <cc:Work
         rdf:about="">
        <dc:format>image/svg+xml</dc:format>
        <dc:type
           rdf:resource="http://purl.org/dc/dcmitype/StillImage" />
        <dc:title></dc:title>
      </cc:Work>
    </rdf:RDF>
  </metadata>
  <rect
     style="opacity:1;fill:#1a0022;fill-opacity:1;stroke:none;stroke-width:2;stroke-linecap:round;stroke-linejoin:round;stroke-miterlimit:4;stroke-dasharray:none;stroke-dashoffset:0;stroke-opacity:1"
     id="rect4398"
     width="1024"
     height="783"
     x="0"
     y="-783"
     transform="matrix(0,1,-1,0,0,0)" />
  <g
     id="g3373"
     transform="matrix(0.42723702,0,0,0.42723702,-10.899587,456.91381)">
    <g
       style="fill:#7137c8;filter:url(#filter4420)"
       transform="matrix(1.6291534,0,0,1.6291534,-61.560594,-1201.5875)"
       id="g4412">
      <path
         d="m 307.22,370.34 c -3.972,1.1e-4 -7.7197,0.52233 -11.219,1.5625 -3.4991,0.94579 -6.5091,2.5125 -9.0625,4.6875 -2.5534,2.0806 -4.5806,4.8143 -6.0938,8.2188 -1.4186,3.31 -2.1562,7.3645 -2.1562,12.188 0,5.2014 0.92191,9.6252 2.7188,13.219 1.7968,3.5938 4.0083,6.6958 6.6562,9.3438 2.7425,2.6479 5.6604,4.9828 8.7812,6.9688 3.2154,1.9861 6.1645,3.9212 8.8125,5.8125 2.7425,1.8914 5.0156,3.9187 6.8125,6.0938 1.7968,2.0806 2.6874,4.6301 2.6875,7.6562 -5e-5,7.3766 -4.7305,11.062 -14.188,11.062 -3.7828,0 -7.3151,-0.55265 -10.625,-1.6875 -3.31,-1.1348 -5.9211,-2.2714 -7.8125,-3.4062 l -5.8125,16.031 c 2.3642,1.4186 5.7123,2.6776 10.062,3.8125 4.4448,1.1348 9.6054,1.7188 15.469,1.7188 4.6339,0 8.8422,-0.61429 12.625,-1.8438 3.7828,-1.2294 7.0082,-3.0419 9.6562,-5.4062 2.7425,-2.4588 4.8001,-5.5305 6.2188,-9.2188 1.5131,-3.6882 2.2812,-8.0503 2.2812,-13.062 -6e-5,-5.0122 -0.89072,-9.3125 -2.6875,-12.906 -1.7969,-3.6882 -4.07,-6.852 -6.8125,-9.5 -2.648,-2.7424 -5.5972,-5.1078 -8.8125,-7.0938 -3.1208,-2.0806 -6.0387,-4.046 -8.7812,-5.9375 -2.648,-1.8913 -4.8594,-3.8264 -6.6562,-5.8125 -1.7968,-2.0804 -2.7188,-4.4457 -2.7188,-7.0938 -2e-5,-2.9316 1.014,-5.1743 3,-6.6875 1.986,-1.513 4.8117,-2.2499 8.5,-2.25 3.6882,8e-5 7.0979,0.46063 10.219,1.4062 3.2153,0.94578 5.611,1.9902 7.2188,3.125 l 5.5312,-15.75 c -2.7426,-1.6076 -6.1827,-2.8979 -10.344,-3.8438 -4.1611,-0.94559 -8.6457,-1.4061 -13.469,-1.4062 z m 526.75,0 c -5.1068,1.1e-4 -9.9599,0.95245 -14.594,2.8438 -4.5394,1.7969 -8.5634,4.7765 -12.062,8.9375 -3.4045,4.0666 -6.1382,9.3497 -8.2188,15.875 -2.0806,6.5254 -3.125,14.512 -3.125,23.969 -10e-6,9.0788 0.82898,16.881 2.5312,23.406 1.7968,6.4308 4.2542,11.776 7.375,16.031 3.2154,4.1611 7.1169,7.2328 11.656,9.2188 4.5394,1.9861 9.5766,3 15.156,3 4.6339,0 9.2723,-0.70653 13.906,-2.125 4.7284,-1.5132 8.8446,-3.9401 12.344,-7.25 l 0,-43.969 -30.625,0 0,10.781 16.312,2.25 0,20.312 c -1.324,1.2295 -2.8907,2.1201 -4.6875,2.6875 -1.7023,0.56748 -3.5149,0.84375 -5.4062,0.84375 -5.958,0 -10.781,-2.8258 -14.469,-8.5 -3.5937,-5.6742 -5.375,-14.521 -5.375,-26.531 -2e-5,-6.2415 0.46053,-11.586 1.4062,-16.031 1.0402,-4.5393 2.4844,-8.2253 4.2812,-11.062 1.8914,-2.837 4.1332,-4.9259 6.7812,-6.25 2.7425,-1.3239 5.7838,-1.9687 9.0938,-1.9688 3.5936,8e-5 6.6036,0.27641 9.0625,0.84375 2.5533,0.5675 4.796,1.274 6.6875,2.125 l 3.6875,-15.469 c -2.4589,-1.0402 -5.5922,-1.9308 -9.375,-2.6875 -3.6883,-0.85102 -7.8044,-1.2811 -12.344,-1.2812 z m -148.69,0.5625 c -3.31,9e-5 -5.8594,0.95245 -7.6562,2.8438 -1.7968,1.7969 -2.7188,4.1005 -2.7188,6.9375 0,2.8372 0.92191,5.172 2.7188,6.9688 1.7968,1.7024 4.3463,2.5626 7.6562,2.5625 3.3099,8e-5 5.9515,-0.86015 7.9375,-2.5625 1.986,-1.7022 2.9687,-4.037 2.9688,-6.9688 -2e-5,-2.9316 -0.9828,-5.2968 -2.9688,-7.0938 -1.986,-1.7967 -4.6276,-2.6874 -7.9375,-2.6875 z m -83.219,1.4375 0,99.281 17.875,0 0,-42.562 3.8438,0 22.562,42.562 21.844,0 -26.25,-46.812 -6.8125,-5.375 6.6562,-5.25 22.719,-41.844 -20.156,0 -20.84,42.4 -3.5625,1.6875 0,-44.094 -17.875,0 z m 139.34,0 0,28.656 c -1.4186,-0.66187 -2.8932,-1.1537 -4.4062,-1.4375 -1.5132,-0.28363 -3.4178,-0.40618 -5.6875,-0.40625 -8.795,7e-5 -15.399,3.2559 -19.844,9.7812 -4.4448,6.4308 -6.6875,15.892 -6.6875,28.375 -10e-6,12.767 2.0585,21.982 6.125,27.656 4.1611,5.6741 9.8126,8.5 17,8.5 8.0384,0 13.691,-3.3176 16.906,-9.9375 l 0.5625,0 2.25,8.25 11.938,0 c -0.66204,-4.823 -1.0618,-9.2156 -1.1562,-13.188 -0.0947,-3.9719 -0.12506,-7.9656 -0.125,-11.938 l 0,-74.312 -16.875,0 z m -203.28,26.375 c -8.9842,7e-5 -16.018,3.0718 -21.125,9.2188 -5.0122,6.0526 -7.5313,15.452 -7.5312,28.219 -1e-5,5.8634 0.52222,11.116 1.5625,15.75 1.1348,4.5394 2.8241,8.4096 5.0938,11.625 2.2697,3.2154 5.1571,5.6728 8.6562,7.375 3.5936,1.7023 7.8636,2.5625 12.781,2.5625 4.4448,0 8.6834,-0.64478 12.75,-1.9688 4.0665,-1.324 7.2919,-3.0444 9.6562,-5.125 l -5.25,-11.781 c -1.324,1.0403 -3.2592,2.0544 -5.8125,3 -2.46,0.94 -5.2,1.4 -8.22,1.4 -5.0122,0 -8.6678,-1.5667 -10.938,-4.6875 -2.2697,-3.1208 -3.4984,-7.6053 -3.6875,-13.469 l 34.469,0 c 0.47279,-2.7424 0.8108,-5.2919 1,-7.6562 0.28365,-2.3642 0.40619,-4.5757 0.40625,-6.6562 -6e-5,-5.3905 -0.70651,-9.8446 -2.125,-13.344 -1.324,-3.5935 -3.1054,-6.4194 -5.375,-8.5 -2.1752,-2.1751 -4.6942,-3.7113 -7.5312,-4.5625 -2.8371,-0.94564 -5.755,-1.4062 -8.7812,-1.4062 z m 509.5,0 c -8.9842,7e-5 -16.018,3.0718 -21.125,9.2188 -5.0122,6.0526 -7.5312,15.452 -7.5312,28.219 0,5.8634 0.5222,11.116 1.5624,15.75 1.1349,4.5394 2.8554,8.4096 5.125,11.625 2.2697,3.2154 5.1572,5.6728 8.6563,7.375 3.5936,1.7023 7.8323,2.5625 12.75,2.5625 4.4447,0 8.7147,-0.64478 12.781,-1.9688 4.0664,-1.324 7.2607,-3.0444 9.625,-5.125 l -5.25,-11.781 c -1.3241,1.0403 -3.2592,2.0544 -5.8126,3 -2.4588,0.94572 -5.1925,1.4062 -8.2187,1.4062 -5.0122,0 -8.6366,-1.5667 -10.906,-4.6875 -2.2697,-3.1208 -3.4983,-7.6053 -3.6874,-13.469 l 34.469,0 c 0.4728,-2.7424 0.7796,-5.2919 0.9687,-7.6562 0.2837,-2.3642 0.4375,-4.5757 0.4376,-6.6562 -10e-5,-5.3905 -0.7066,-9.8446 -2.125,-13.344 -1.3241,-3.5935 -3.1367,-6.4194 -5.4063,-8.5 -2.1752,-2.1751 -4.6629,-3.7113 -7.5,-4.5625 -2.8371,-0.94564 -5.7863,-1.4062 -8.8125,-1.4062 z m -559.56,0.125 c -8.6059,8e-5 -15.149,3.1334 -19.594,9.375 -4.4448,6.2417 -6.6563,15.549 -6.6562,27.938 -10e-6,5.6742 0.43012,10.835 1.2812,15.469 0.9457,4.5394 2.4507,8.4712 4.5312,11.781 2.0805,3.2153 4.7221,5.7032 7.9375,7.5 3.3099,1.7023 7.3956,2.5625 12.219,2.5625 3.3099,0 6.5963,-0.46053 9.9062,-1.4062 3.3099,-0.94572 6.167,-2.3586 8.5312,-4.25 l -3.5625,-13.062 c -1.4186,0.94572 -2.954,1.7443 -4.6562,2.4062 -1.6077,0.56748 -3.6045,0.84387 -5.9688,0.84375 -4.4448,1.2e-4 -7.7007,-2.0271 -9.7812,-6.0938 -1.986,-4.0664 -3,-9.3192 -3,-15.75 -2e-5,-7.6601 1.014,-13.189 3,-16.594 1.9859,-3.499 4.9655,-5.2499 8.9375,-5.25 2.1751,1.2e-4 4.0181,0.24589 5.5312,0.71875 1.6077,0.37836 3.2664,0.99265 4.9688,1.8438 l 3.9688,-14.031 c -2.0806,-1.1347 -4.5075,-2.0871 -7.25,-2.8438 -2.648,-0.75649 -6.0881,-1.1562 -10.344,-1.1562 z m 613,0 c -6.9982,8e-5 -12.281,1.8126 -15.875,5.4062 -3.5937,3.5937 -5.375,8.6927 -5.375,15.312 0,3.8774 0.6143,7.1029 1.8437,9.6562 1.324,2.5534 2.9516,4.7344 4.9376,6.5312 1.9859,1.7968 4.0748,3.3019 6.25,4.5312 2.2696,1.2295 4.389,2.458 6.375,3.6875 1.9859,1.1348 3.6143,2.4252 4.8437,3.8438 1.324,1.324 1.9687,2.9516 1.9687,4.9375 0,2.1751 -0.7064,3.8035 -2.125,4.8438 -1.4185,0.94572 -3.1999,1.4062 -5.375,1.4062 -2.8371,0 -5.602,-0.43015 -8.25,-1.2812 -2.5534,-0.8511 -4.7952,-1.8339 -6.7812,-2.9688 l -4.6875,13.625 c 2.2697,1.5131 5.2493,2.7418 8.9375,3.6875 3.7828,0.94572 7.5914,1.4062 11.469,1.4062 7.8492,0 13.778,-1.9967 17.75,-5.9688 3.9718,-3.9719 5.9687,-9.1934 5.9687,-15.719 0,-3.8774 -0.6761,-7.1644 -2,-9.8125 -1.2295,-2.6479 -2.8266,-4.8594 -4.8125,-6.6562 -1.986,-1.8913 -4.1366,-3.458 -6.4062,-4.6875 -2.1752,-1.2294 -4.2329,-2.3963 -6.2188,-3.5312 -1.986,-1.1347 -3.6448,-2.2714 -4.9688,-3.4062 -1.2294,-1.2295 -1.8437,-2.7344 -1.8437,-4.5312 0,-3.8774 2.3035,-5.8436 6.9375,-5.8438 2.4588,1.2e-4 4.9778,0.39976 7.5312,1.1562 2.5534,0.6621 4.7344,1.3685 6.5313,2.125 l 3.9687,-13.062 c -2.1751,-1.324 -5.1243,-2.3988 -8.8124,-3.25 -3.6883,-0.94559 -7.6202,-1.4374 -11.781,-1.4375 z M 374.591,399 c -3.972,7e-5 -7.3512,0.79866 -10.094,2.4062 -2.648,1.5132 -5.0437,3.9705 -7.2188,7.375 l -0.4375,0 -1.6875,-8.0938 -12.625,0 0,99.312 16.875,0 0,-28.781 c 1.4185,0.8511 2.9235,1.4654 4.5312,1.8438 1.6077,0.37824 3.5428,0.5625 5.8125,0.5625 8.6058,0 15.179,-3.3793 19.719,-10.094 4.5393,-6.8091 6.8124,-16.546 6.8125,-29.219 -6e-5,-12.672 -1.8431,-21.703 -5.5312,-27.094 -3.5937,-5.485 -8.969,-8.2187 -16.156,-8.2188 z m 586.12,0 c -4.4448,7e-5 -8.0388,0.98281 -10.781,2.9688 -2.648,1.8914 -4.8594,4.3183 -6.6562,7.25 l -0.4375,0 -2.125,-8.5312 -13.031,0 0,70.938 16.875,0 0,-49.656 c 0.75654,-2.0804 1.8314,-3.8313 3.25,-5.25 1.5131,-1.513 3.4178,-2.2499 5.6875,-2.25 2.7425,1.2e-4 4.5855,1.1671 5.5312,3.5312 0.94567,2.2697 1.4062,6.3859 1.4062,12.344 l 0,41.281 16.875,0 0,-49.5 c 0.66194,-2.3642 1.7064,-4.2072 3.125,-5.5312 1.5131,-1.4185 3.4482,-2.1249 5.8125,-2.125 2.9316,1.2e-4 4.8363,1.1367 5.6875,3.4062 0.85106,2.2698 1.2812,5.802 1.2812,10.625 l 0,43.125 16.875,0 0,-45.969 c 0,-5.2959 -0.338,-9.6267 -1,-13.031 -0.662,-3.499 -1.7065,-6.2639 -3.125,-8.25 -1.324,-1.986 -3.1053,-3.337 -5.375,-4.0938 -2.1751,-0.85103 -4.8167,-1.2812 -7.9374,-1.2812 -3.972,7e-5 -7.4434,0.98281 -10.375,2.9688 -2.9317,1.8914 -5.297,4.5642 -7.0938,7.9688 -1.324,-4.0665 -3.167,-6.9234 -5.5312,-8.5312 -2.2697,-1.6076 -5.2493,-2.4062 -8.9375,-2.4062 z m -529.5,0.28125 c -5.3905,7e-5 -10.213,0.52227 -14.469,1.5625 -4.2557,1.0403 -7.7879,2.4228 -10.625,4.125 l 4.25,12.625 c 2.3642,-1.2295 5.0362,-2.1816 8.0625,-2.8438 3.0262,-0.66187 5.9754,-1 8.8125,-1 3.8773,0 6.3651,1.2288 7.5,3.6875 1.2293,2.4589 1.6291,6.4213 1.1562,11.906 -10.308,-0.56736 -18.51,0.96896 -24.562,4.5625 -6.0525,3.5938 -9.0625,9.645 -9.0625,18.156 0,6.2416 1.5971,11.248 4.8125,15.031 3.2154,3.6883 7.6078,5.5312 13.188,5.5312 4.1611,0 7.6324,-0.89067 10.375,-2.6875 2.7425,-1.7968 4.8618,-4.07 6.375,-6.8125 l 0.5625,0 2.6875,8.6562 13.781,0 c -1.0403,-3.4044 -1.7163,-6.9985 -2,-10.781 -0.18917,-3.8773 -0.21962,-7.871 -0.125,-11.938 0.0945,-4.161 0.21706,-8.3694 0.40625,-12.625 0.28366,-4.3501 0.43745,-8.7426 0.4375,-13.188 -5e-5,-7.6601 -1.5972,-13.558 -4.8125,-17.719 -3.1209,-4.161 -8.7116,-6.2499 -16.75,-6.25 z m 463.25,0 c -5.3905,7e-5 -10.213,0.52227 -14.469,1.5625 -4.2557,1.0403 -7.8192,2.4228 -10.656,4.125 l 4.2812,12.625 c 2.3642,-1.2295 5.0362,-2.1816 8.0625,-2.8438 3.0262,-0.66187 5.9754,-1 8.8125,-1 3.8774,0 6.3651,1.2288 7.5,3.6875 1.2294,2.4589 1.629,6.4213 1.1562,11.906 -10.308,-0.56736 -18.51,0.96896 -24.562,4.5625 -6.0525,3.5938 -9.0625,9.645 -9.0625,18.156 0,6.2416 1.5971,11.248 4.8125,15.031 3.2154,3.6883 7.6078,5.5312 13.188,5.5312 4.1611,0 7.6324,-0.89067 10.375,-2.6875 2.7425,-1.7968 4.8618,-4.07 6.375,-6.8125 l 0.5625,0 2.6875,8.6562 13.781,0 c -1.0403,-3.4044 -1.7163,-6.9985 -2,-10.781 -0.18917,-3.8773 -0.21962,-7.871 -0.125,-11.938 0.0945,-4.161 0.21706,-8.3694 0.40625,-12.625 0.28366,-4.3501 0.43745,-8.7426 0.4375,-13.188 -5e-5,-7.6601 -1.6284,-13.558 -4.8438,-17.719 -3.1208,-4.161 -8.6803,-6.2499 -16.719,-6.25 z m -217.5,1.4062 0,70.938 16.875,0 0,-70.938 -16.875,0 z m -139.06,12.5 c 3.0262,1.2e-4 5.2377,1.413 6.6562,4.25 1.4185,2.7426 2.0024,6.797 1.7188,12.188 l -19.594,0 c 0.28369,-5.2012 1.3282,-9.1942 3.125,-12.031 1.7968,-2.9317 4.5001,-4.4061 8.0938,-4.4062 z m 509.5,0 c 3.0262,1.2e-4 5.2689,1.413 6.6874,4.25 1.4186,2.7426 1.9712,6.797 1.6876,12.188 l -19.563,0 c 0.2837,-5.2012 1.3282,-9.1942 3.125,-12.031 1.7969,-2.9317 4.4689,-4.4061 8.0626,-4.4062 z m -678.3,0.84 c 3.4991,1.2e-4 5.9868,1.6588 7.5,4.9688 1.5131,3.2154 2.2812,8.1918 2.2812,14.906 -5e-5,8.9843 -1.0141,15.342 -3,19.125 -1.986,3.6883 -4.8422,5.5625 -8.625,5.5625 -1.8914,0 -3.4581,-0.24589 -4.6875,-0.71875 -1.1349,-0.47286 -2.1793,-1.1793 -3.125,-2.125 l 0,-33.344 c 1.7022,-5.5796 4.9277,-8.3749 9.6562,-8.375 z m 364.59,0.5625 c 1.8914,0 3.3964,0.18426 4.5312,0.5625 1.2294,0.37836 2.3355,0.99265 3.2812,1.8438 l 0,33.5 c -0.7566,2.4588 -1.8932,4.3323 -3.4062,5.6562 -1.5132,1.2294 -3.5716,1.8439 -6.125,1.8438 -3.31,1.2e-4 -5.7673,-1.6892 -7.375,-5.0938 -1.5132,-3.499 -2.25,-8.5059 -2.25,-15.031 -1e-5,-8.7004 0.95233,-14.752 2.8438,-18.156 1.8914,-3.4044 4.7172,-5.125 8.5,-5.125 z m -302.21,25.44 c 1.5249,-0.0532 3.1186,0.0373 4.75,0.25 l 0,11.781 c -0.7566,1.5131 -1.9548,2.926 -3.5625,4.25 -1.6077,1.2295 -3.6654,1.8438 -6.2188,1.8438 -2.0806,0 -3.7394,-0.76816 -4.9688,-2.2812 -1.1349,-1.5131 -1.7188,-3.7245 -1.7188,-6.6562 -2e-5,-1.986 0.4301,-3.583 1.2812,-4.8125 0.94569,-1.324 2.1744,-2.338 3.6875,-3 1.5131,-0.66198 3.264,-1.0921 5.25,-1.2812 0.49649,-0.0473 0.99169,-0.076 1.5,-0.0937 z m 463.25,0 c 1.5249,-0.0532 3.1186,0.0373 4.75,0.25 l 0,11.781 c -0.7566,1.5131 -1.9548,2.926 -3.5625,4.25 -1.6077,1.2295 -3.6654,1.8438 -6.2188,1.8438 -2.0806,0 -3.7394,-0.76816 -4.9688,-2.2812 -1.1349,-1.5131 -1.7188,-3.7245 -1.7188,-6.6562 -1e-5,-1.986 0.4301,-3.583 1.2812,-4.8125 0.94568,-1.324 2.1744,-2.338 3.6875,-3 1.5131,-0.66198 3.264,-1.0921 5.25,-1.2812 0.49648,-0.0473 0.99169,-0.076 1.5,-0.0937 z"
         transform="matrix(0.85183432,0,0,0.85183432,17.382736,659.22821)"
         id="path4414"
         inkscape:connector-curvature="0"
         style="fill:#7137c8" />
    </g>
    <g
       id="g92"
       transform="matrix(1.6291534,0,0,1.6291534,-61.560594,-1201.5875)">
      <path
         style="fill:#ffffff"
         inkscape:connector-curvature="0"
         id="path96"
         transform="matrix(0.85183432,0,0,0.85183432,17.382736,659.22821)"
         d="m 307.22,370.34 c -3.972,1.1e-4 -7.7197,0.52233 -11.219,1.5625 -3.4991,0.94579 -6.5091,2.5125 -9.0625,4.6875 -2.5534,2.0806 -4.5806,4.8143 -6.0938,8.2188 -1.4186,3.31 -2.1562,7.3645 -2.1562,12.188 0,5.2014 0.92191,9.6252 2.7188,13.219 1.7968,3.5938 4.0083,6.6958 6.6562,9.3438 2.7425,2.6479 5.6604,4.9828 8.7812,6.9688 3.2154,1.9861 6.1645,3.9212 8.8125,5.8125 2.7425,1.8914 5.0156,3.9187 6.8125,6.0938 1.7968,2.0806 2.6874,4.6301 2.6875,7.6562 -5e-5,7.3766 -4.7305,11.062 -14.188,11.062 -3.7828,0 -7.3151,-0.55265 -10.625,-1.6875 -3.31,-1.1348 -5.9211,-2.2714 -7.8125,-3.4062 l -5.8125,16.031 c 2.3642,1.4186 5.7123,2.6776 10.062,3.8125 4.4448,1.1348 9.6054,1.7188 15.469,1.7188 4.6339,0 8.8422,-0.61429 12.625,-1.8438 3.7828,-1.2294 7.0082,-3.0419 9.6562,-5.4062 2.7425,-2.4588 4.8001,-5.5305 6.2188,-9.2188 1.5131,-3.6882 2.2812,-8.0503 2.2812,-13.062 -6e-5,-5.0122 -0.89072,-9.3125 -2.6875,-12.906 -1.7969,-3.6882 -4.07,-6.852 -6.8125,-9.5 -2.648,-2.7424 -5.5972,-5.1078 -8.8125,-7.0938 -3.1208,-2.0806 -6.0387,-4.046 -8.7812,-5.9375 -2.648,-1.8913 -4.8594,-3.8264 -6.6562,-5.8125 -1.7968,-2.0804 -2.7188,-4.4457 -2.7188,-7.0938 -2e-5,-2.9316 1.014,-5.1743 3,-6.6875 1.986,-1.513 4.8117,-2.2499 8.5,-2.25 3.6882,8e-5 7.0979,0.46063 10.219,1.4062 3.2153,0.94578 5.611,1.9902 7.2188,3.125 l 5.5312,-15.75 c -2.7426,-1.6076 -6.1827,-2.8979 -10.344,-3.8438 -4.1611,-0.94559 -8.6457,-1.4061 -13.469,-1.4062 z m 526.75,0 c -5.1068,1.1e-4 -9.9599,0.95245 -14.594,2.8438 -4.5394,1.7969 -8.5634,4.7765 -12.062,8.9375 -3.4045,4.0666 -6.1382,9.3497 -8.2188,15.875 -2.0806,6.5254 -3.125,14.512 -3.125,23.969 -10e-6,9.0788 0.82898,16.881 2.5312,23.406 1.7968,6.4308 4.2542,11.776 7.375,16.031 3.2154,4.1611 7.1169,7.2328 11.656,9.2188 4.5394,1.9861 9.5766,3 15.156,3 4.6339,0 9.2723,-0.70653 13.906,-2.125 4.7284,-1.5132 8.8446,-3.9401 12.344,-7.25 l 0,-43.969 -30.625,0 0,10.781 16.312,2.25 0,20.312 c -1.324,1.2295 -2.8907,2.1201 -4.6875,2.6875 -1.7023,0.56748 -3.5149,0.84375 -5.4062,0.84375 -5.958,0 -10.781,-2.8258 -14.469,-8.5 -3.5937,-5.6742 -5.375,-14.521 -5.375,-26.531 -2e-5,-6.2415 0.46053,-11.586 1.4062,-16.031 1.0402,-4.5393 2.4844,-8.2253 4.2812,-11.062 1.8914,-2.837 4.1332,-4.9259 6.7812,-6.25 2.7425,-1.3239 5.7838,-1.9687 9.0938,-1.9688 3.5936,8e-5 6.6036,0.27641 9.0625,0.84375 2.5533,0.5675 4.796,1.274 6.6875,2.125 l 3.6875,-15.469 c -2.4589,-1.0402 -5.5922,-1.9308 -9.375,-2.6875 -3.6883,-0.85102 -7.8044,-1.2811 -12.344,-1.2812 z m -148.69,0.5625 c -3.31,9e-5 -5.8594,0.95245 -7.6562,2.8438 -1.7968,1.7969 -2.7188,4.1005 -2.7188,6.9375 0,2.8372 0.92191,5.172 2.7188,6.9688 1.7968,1.7024 4.3463,2.5626 7.6562,2.5625 3.3099,8e-5 5.9515,-0.86015 7.9375,-2.5625 1.986,-1.7022 2.9687,-4.037 2.9688,-6.9688 -2e-5,-2.9316 -0.9828,-5.2968 -2.9688,-7.0938 -1.986,-1.7967 -4.6276,-2.6874 -7.9375,-2.6875 z m -83.219,1.4375 0,99.281 17.875,0 0,-42.562 3.8438,0 22.562,42.562 21.844,0 -26.25,-46.812 -6.8125,-5.375 6.6562,-5.25 22.719,-41.844 -20.156,0 -20.84,42.4 -3.5625,1.6875 0,-44.094 -17.875,0 z m 139.34,0 0,28.656 c -1.4186,-0.66187 -2.8932,-1.1537 -4.4062,-1.4375 -1.5132,-0.28363 -3.4178,-0.40618 -5.6875,-0.40625 -8.795,7e-5 -15.399,3.2559 -19.844,9.7812 -4.4448,6.4308 -6.6875,15.892 -6.6875,28.375 -10e-6,12.767 2.0585,21.982 6.125,27.656 4.1611,5.6741 9.8126,8.5 17,8.5 8.0384,0 13.691,-3.3176 16.906,-9.9375 l 0.5625,0 2.25,8.25 11.938,0 c -0.66204,-4.823 -1.0618,-9.2156 -1.1562,-13.188 -0.0947,-3.9719 -0.12506,-7.9656 -0.125,-11.938 l 0,-74.312 -16.875,0 z m -203.28,26.375 c -8.9842,7e-5 -16.018,3.0718 -21.125,9.2188 -5.0122,6.0526 -7.5313,15.452 -7.5312,28.219 -1e-5,5.8634 0.52222,11.116 1.5625,15.75 1.1348,4.5394 2.8241,8.4096 5.0938,11.625 2.2697,3.2154 5.1571,5.6728 8.6562,7.375 3.5936,1.7023 7.8636,2.5625 12.781,2.5625 4.4448,0 8.6834,-0.64478 12.75,-1.9688 4.0665,-1.324 7.2919,-3.0444 9.6562,-5.125 l -5.25,-11.781 c -1.324,1.0403 -3.2592,2.0544 -5.8125,3 -2.46,0.94 -5.2,1.4 -8.22,1.4 -5.0122,0 -8.6678,-1.5667 -10.938,-4.6875 -2.2697,-3.1208 -3.4984,-7.6053 -3.6875,-13.469 l 34.469,0 c 0.47279,-2.7424 0.8108,-5.2919 1,-7.6562 0.28365,-2.3642 0.40619,-4.5757 0.40625,-6.6562 -6e-5,-5.3905 -0.70651,-9.8446 -2.125,-13.344 -1.324,-3.5935 -3.1054,-6.4194 -5.375,-8.5 -2.1752,-2.1751 -4.6942,-3.7113 -7.5312,-4.5625 -2.8371,-0.94564 -5.755,-1.4062 -8.7812,-1.4062 z m 509.5,0 c -8.9842,7e-5 -16.018,3.0718 -21.125,9.2188 -5.0122,6.0526 -7.5312,15.452 -7.5312,28.219 0,5.8634 0.5222,11.116 1.5624,15.75 1.1349,4.5394 2.8554,8.4096 5.125,11.625 2.2697,3.2154 5.1572,5.6728 8.6563,7.375 3.5936,1.7023 7.8323,2.5625 12.75,2.5625 4.4447,0 8.7147,-0.64478 12.781,-1.9688 4.0664,-1.324 7.2607,-3.0444 9.625,-5.125 l -5.25,-11.781 c -1.3241,1.0403 -3.2592,2.0544 -5.8126,3 -2.4588,0.94572 -5.1925,1.4062 -8.2187,1.4062 -5.0122,0 -8.6366,-1.5667 -10.906,-4.6875 -2.2697,-3.1208 -3.4983,-7.6053 -3.6874,-13.469 l 34.469,0 c 0.4728,-2.7424 0.7796,-5.2919 0.9687,-7.6562 0.2837,-2.3642 0.4375,-4.5757 0.4376,-6.6562 -10e-5,-5.3905 -0.7066,-9.8446 -2.125,-13.344 -1.3241,-3.5935 -3.1367,-6.4194 -5.4063,-8.5 -2.1752,-2.1751 -4.6629,-3.7113 -7.5,-4.5625 -2.8371,-0.94564 -5.7863,-1.4062 -8.8125,-1.4062 z m -559.56,0.125 c -8.6059,8e-5 -15.149,3.1334 -19.594,9.375 -4.4448,6.2417 -6.6563,15.549 -6.6562,27.938 -10e-6,5.6742 0.43012,10.835 1.2812,15.469 0.9457,4.5394 2.4507,8.4712 4.5312,11.781 2.0805,3.2153 4.7221,5.7032 7.9375,7.5 3.3099,1.7023 7.3956,2.5625 12.219,2.5625 3.3099,0 6.5963,-0.46053 9.9062,-1.4062 3.3099,-0.94572 6.167,-2.3586 8.5312,-4.25 l -3.5625,-13.062 c -1.4186,0.94572 -2.954,1.7443 -4.6562,2.4062 -1.6077,0.56748 -3.6045,0.84387 -5.9688,0.84375 -4.4448,1.2e-4 -7.7007,-2.0271 -9.7812,-6.0938 -1.986,-4.0664 -3,-9.3192 -3,-15.75 -2e-5,-7.6601 1.014,-13.189 3,-16.594 1.9859,-3.499 4.9655,-5.2499 8.9375,-5.25 2.1751,1.2e-4 4.0181,0.24589 5.5312,0.71875 1.6077,0.37836 3.2664,0.99265 4.9688,1.8438 l 3.9688,-14.031 c -2.0806,-1.1347 -4.5075,-2.0871 -7.25,-2.8438 -2.648,-0.75649 -6.0881,-1.1562 -10.344,-1.1562 z m 613,0 c -6.9982,8e-5 -12.281,1.8126 -15.875,5.4062 -3.5937,3.5937 -5.375,8.6927 -5.375,15.312 0,3.8774 0.6143,7.1029 1.8437,9.6562 1.324,2.5534 2.9516,4.7344 4.9376,6.5312 1.9859,1.7968 4.0748,3.3019 6.25,4.5312 2.2696,1.2295 4.389,2.458 6.375,3.6875 1.9859,1.1348 3.6143,2.4252 4.8437,3.8438 1.324,1.324 1.9687,2.9516 1.9687,4.9375 0,2.1751 -0.7064,3.8035 -2.125,4.8438 -1.4185,0.94572 -3.1999,1.4062 -5.375,1.4062 -2.8371,0 -5.602,-0.43015 -8.25,-1.2812 -2.5534,-0.8511 -4.7952,-1.8339 -6.7812,-2.9688 l -4.6875,13.625 c 2.2697,1.5131 5.2493,2.7418 8.9375,3.6875 3.7828,0.94572 7.5914,1.4062 11.469,1.4062 7.8492,0 13.778,-1.9967 17.75,-5.9688 3.9718,-3.9719 5.9687,-9.1934 5.9687,-15.719 0,-3.8774 -0.6761,-7.1644 -2,-9.8125 -1.2295,-2.6479 -2.8266,-4.8594 -4.8125,-6.6562 -1.986,-1.8913 -4.1366,-3.458 -6.4062,-4.6875 -2.1752,-1.2294 -4.2329,-2.3963 -6.2188,-3.5312 -1.986,-1.1347 -3.6448,-2.2714 -4.9688,-3.4062 -1.2294,-1.2295 -1.8437,-2.7344 -1.8437,-4.5312 0,-3.8774 2.3035,-5.8436 6.9375,-5.8438 2.4588,1.2e-4 4.9778,0.39976 7.5312,1.1562 2.5534,0.6621 4.7344,1.3685 6.5313,2.125 l 3.9687,-13.062 c -2.1751,-1.324 -5.1243,-2.3988 -8.8124,-3.25 -3.6883,-0.94559 -7.6202,-1.4374 -11.781,-1.4375 z M 374.591,399 c -3.972,7e-5 -7.3512,0.79866 -10.094,2.4062 -2.648,1.5132 -5.0437,3.9705 -7.2188,7.375 l -0.4375,0 -1.6875,-8.0938 -12.625,0 0,99.312 16.875,0 0,-28.781 c 1.4185,0.8511 2.9235,1.4654 4.5312,1.8438 1.6077,0.37824 3.5428,0.5625 5.8125,0.5625 8.6058,0 15.179,-3.3793 19.719,-10.094 4.5393,-6.8091 6.8124,-16.546 6.8125,-29.219 -6e-5,-12.672 -1.8431,-21.703 -5.5312,-27.094 -3.5937,-5.485 -8.969,-8.2187 -16.156,-8.2188 z m 586.12,0 c -4.4448,7e-5 -8.0388,0.98281 -10.781,2.9688 -2.648,1.8914 -4.8594,4.3183 -6.6562,7.25 l -0.4375,0 -2.125,-8.5312 -13.031,0 0,70.938 16.875,0 0,-49.656 c 0.75654,-2.0804 1.8314,-3.8313 3.25,-5.25 1.5131,-1.513 3.4178,-2.2499 5.6875,-2.25 2.7425,1.2e-4 4.5855,1.1671 5.5312,3.5312 0.94567,2.2697 1.4062,6.3859 1.4062,12.344 l 0,41.281 16.875,0 0,-49.5 c 0.66194,-2.3642 1.7064,-4.2072 3.125,-5.5312 1.5131,-1.4185 3.4482,-2.1249 5.8125,-2.125 2.9316,1.2e-4 4.8363,1.1367 5.6875,3.4062 0.85106,2.2698 1.2812,5.802 1.2812,10.625 l 0,43.125 16.875,0 0,-45.969 c 0,-5.2959 -0.338,-9.6267 -1,-13.031 -0.662,-3.499 -1.7065,-6.2639 -3.125,-8.25 -1.324,-1.986 -3.1053,-3.337 -5.375,-4.0938 -2.1751,-0.85103 -4.8167,-1.2812 -7.9374,-1.2812 -3.972,7e-5 -7.4434,0.98281 -10.375,2.9688 -2.9317,1.8914 -5.297,4.5642 -7.0938,7.9688 -1.324,-4.0665 -3.167,-6.9234 -5.5312,-8.5312 -2.2697,-1.6076 -5.2493,-2.4062 -8.9375,-2.4062 z m -529.5,0.28125 c -5.3905,7e-5 -10.213,0.52227 -14.469,1.5625 -4.2557,1.0403 -7.7879,2.4228 -10.625,4.125 l 4.25,12.625 c 2.3642,-1.2295 5.0362,-2.1816 8.0625,-2.8438 3.0262,-0.66187 5.9754,-1 8.8125,-1 3.8773,0 6.3651,1.2288 7.5,3.6875 1.2293,2.4589 1.6291,6.4213 1.1562,11.906 -10.308,-0.56736 -18.51,0.96896 -24.562,4.5625 -6.0525,3.5938 -9.0625,9.645 -9.0625,18.156 0,6.2416 1.5971,11.248 4.8125,15.031 3.2154,3.6883 7.6078,5.5312 13.188,5.5312 4.1611,0 7.6324,-0.89067 10.375,-2.6875 2.7425,-1.7968 4.8618,-4.07 6.375,-6.8125 l 0.5625,0 2.6875,8.6562 13.781,0 c -1.0403,-3.4044 -1.7163,-6.9985 -2,-10.781 -0.18917,-3.8773 -0.21962,-7.871 -0.125,-11.938 0.0945,-4.161 0.21706,-8.3694 0.40625,-12.625 0.28366,-4.3501 0.43745,-8.7426 0.4375,-13.188 -5e-5,-7.6601 -1.5972,-13.558 -4.8125,-17.719 -3.1209,-4.161 -8.7116,-6.2499 -16.75,-6.25 z m 463.25,0 c -5.3905,7e-5 -10.213,0.52227 -14.469,1.5625 -4.2557,1.0403 -7.8192,2.4228 -10.656,4.125 l 4.2812,12.625 c 2.3642,-1.2295 5.0362,-2.1816 8.0625,-2.8438 3.0262,-0.66187 5.9754,-1 8.8125,-1 3.8774,0 6.3651,1.2288 7.5,3.6875 1.2294,2.4589 1.629,6.4213 1.1562,11.906 -10.308,-0.56736 -18.51,0.96896 -24.562,4.5625 -6.0525,3.5938 -9.0625,9.645 -9.0625,18.156 0,6.2416 1.5971,11.248 4.8125,15.031 3.2154,3.6883 7.6078,5.5312 13.188,5.5312 4.1611,0 7.6324,-0.89067 10.375,-2.6875 2.7425,-1.7968 4.8618,-4.07 6.375,-6.8125 l 0.5625,0 2.6875,8.6562 13.781,0 c -1.0403,-3.4044 -1.7163,-6.9985 -2,-10.781 -0.18917,-3.8773 -0.21962,-7.871 -0.125,-11.938 0.0945,-4.161 0.21706,-8.3694 0.40625,-12.625 0.28366,-4.3501 0.43745,-8.7426 0.4375,-13.188 -5e-5,-7.6601 -1.6284,-13.558 -4.8438,-17.719 -3.1208,-4.161 -8.6803,-6.2499 -16.719,-6.25 z m -217.5,1.4062 0,70.938 16.875,0 0,-70.938 -16.875,0 z m -139.06,12.5 c 3.0262,1.2e-4 5.2377,1.413 6.6562,4.25 1.4185,2.7426 2.0024,6.797 1.7188,12.188 l -19.594,0 c 0.28369,-5.2012 1.3282,-9.1942 3.125,-12.031 1.7968,-2.9317 4.5001,-4.4061 8.0938,-4.4062 z m 509.5,0 c 3.0262,1.2e-4 5.2689,1.413 6.6874,4.25 1.4186,2.7426 1.9712,6.797 1.6876,12.188 l -19.563,0 c 0.2837,-5.2012 1.3282,-9.1942 3.125,-12.031 1.7969,-2.9317 4.4689,-4.4061 8.0626,-4.4062 z m -678.3,0.84 c 3.4991,1.2e-4 5.9868,1.6588 7.5,4.9688 1.5131,3.2154 2.2812,8.1918 2.2812,14.906 -5e-5,8.9843 -1.0141,15.342 -3,19.125 -1.986,3.6883 -4.8422,5.5625 -8.625,5.5625 -1.8914,0 -3.4581,-0.24589 -4.6875,-0.71875 -1.1349,-0.47286 -2.1793,-1.1793 -3.125,-2.125 l 0,-33.344 c 1.7022,-5.5796 4.9277,-8.3749 9.6562,-8.375 z m 364.59,0.5625 c 1.8914,0 3.3964,0.18426 4.5312,0.5625 1.2294,0.37836 2.3355,0.99265 3.2812,1.8438 l 0,33.5 c -0.7566,2.4588 -1.8932,4.3323 -3.4062,5.6562 -1.5132,1.2294 -3.5716,1.8439 -6.125,1.8438 -3.31,1.2e-4 -5.7673,-1.6892 -7.375,-5.0938 -1.5132,-3.499 -2.25,-8.5059 -2.25,-15.031 -1e-5,-8.7004 0.95233,-14.752 2.8438,-18.156 1.8914,-3.4044 4.7172,-5.125 8.5,-5.125 z m -302.21,25.44 c 1.5249,-0.0532 3.1186,0.0373 4.75,0.25 l 0,11.781 c -0.7566,1.5131 -1.9548,2.926 -3.5625,4.25 -1.6077,1.2295 -3.6654,1.8438 -6.2188,1.8438 -2.0806,0 -3.7394,-0.76816 -4.9688,-2.2812 -1.1349,-1.5131 -1.7188,-3.7245 -1.7188,-6.6562 -2e-5,-1.986 0.4301,-3.583 1.2812,-4.8125 0.94569,-1.324 2.1744,-2.338 3.6875,-3 1.5131,-0.66198 3.264,-1.0921 5.25,-1.2812 0.49649,-0.0473 0.99169,-0.076 1.5,-0.0937 z m 463.25,0 c 1.5249,-0.0532 3.1186,0.0373 4.75,0.25 l 0,11.781 c -0.7566,1.5131 -1.9548,2.926 -3.5625,4.25 -1.6077,1.2295 -3.6654,1.8438 -6.2188,1.8438 -2.0806,0 -3.7394,-0.76816 -4.9688,-2.2812 -1.1349,-1.5131 -1.7188,-3.7245 -1.7188,-6.6562 -1e-5,-1.986 0.4301,-3.583 1.2812,-4.8125 0.94568,-1.324 2.1744,-2.338 3.6875,-3 1.5131,-0.66198 3.264,-1.0921 5.25,-1.2812 0.49648,-0.0473 0.99169,-0.076 1.5,-0.0937 z" />
    </g>
    <path
       style="fill:#ffffff"
       inkscape:connector-curvature="0"
       id="path98"
       d="m 1600.0237,108.08115 c -28.4659,0.12489 -53.8552,5.65737 -76.3703,14.77279 l -0.032,0 c -48.8911,19.79375 -84.1335,56.41836 -107.4897,90.91829 -16.4908,-12.17185 -49.0229,-11.13324 -100.4883,71.90585 57.6604,-50.56336 75.3531,-53.08077 83.2425,-43.13047 -2.0367,3.87826 -3.9213,7.65535 -5.6202,11.27243 -5.0897,10.83737 -8.653,20.33637 -10.8228,27.58746 l 27.1698,27.20165 -38.7632,38.79508 6.5195,6.51932 38.7951,-38.79508 27.1697,27.20166 c 7.2507,-2.16964 16.7823,-5.76507 27.6194,-10.85485 3.6173,-1.69877 7.3943,-3.58336 11.2725,-5.62032 9.9498,7.89029 7.4005,25.58351 -43.1623,83.24253 83.0385,-51.46541 84.0779,-83.96556 71.9058,-100.45642 34.5013,-23.35615 71.1245,-58.59853 90.9183,-107.48963 l 0,-0.0319 c 10.8038,-26.6854 16.5963,-57.43975 14.2912,-92.52393 l -0.032,-0.0319 c -5.4822,-0.36026 -10.8504,-0.50487 -16.1217,-0.48169 z m -87.385,66.60735 c 6.5788,0.0139 13.17,1.7193 19.0124,5.17054 2.663,1.57304 5.1625,3.4926 7.4508,5.78075 14.6437,14.64513 14.6437,38.40928 0,53.0544 -14.6451,14.64513 -38.3774,14.64513 -53.0225,0 -14.6451,-14.64512 -14.6451,-38.37735 0,-53.02248 7.3367,-7.33671 16.9447,-10.99515 26.5591,-10.98349 z m -1.0921,11.17611 c -6.3884,0.24939 -12.6886,2.82925 -17.5664,7.70767 -10.2803,10.27865 -10.2786,26.94353 0,37.22135 10.2788,10.28031 26.9422,10.27865 37.2214,0 10.2818,-10.27851 10.2788,-26.94215 0,-37.22135 -1.6061,-1.60606 -3.3655,-2.97454 -5.2347,-4.07865 l -0.032,0 c -4.4159,-2.60859 -9.4188,-3.82289 -14.387,-3.62902 z m 0.1929,4.97779 c 4.0287,-0.15723 8.1092,0.83946 11.6899,2.9547 1.5157,0.89525 2.9369,1.97341 4.2392,3.27569 8.3348,8.3348 8.3369,21.85319 0,30.18813 -8.3347,8.33466 -21.8532,8.33453 -30.1881,0 -8.3348,-8.33466 -8.3361,-21.85319 0,-30.18813 3.9555,-3.9557 9.0786,-6.02805 14.2593,-6.23039 z" />
  </g>
</svg>
