<?xml version="1.0" encoding="UTF-8" standalone="no"?>
<!-- Created with Inkscape (http://www.inkscape.org/) -->
<svg id="svg2" xmlns:rdf="http://www.w3.org/1999/02/22-rdf-syntax-ns#" xmlns="http://www.w3.org/2000/svg" height="2.8236mm" viewBox="0 0 9.42627 10.00488" width="2.6603mm" version="1.1" xmlns:cc="http://creativecommons.org/ns#" xmlns:dc="http://purl.org/dc/elements/1.1/">
<metadata id="metadata7">
<rdf:RDF>
<cc:Work rdf:about="">
<dc:format>image/svg+xml</dc:format>
<dc:type rdf:resource="http://purl.org/dc/dcmitype/StillImage"/>
<dc:title/>
</cc:Work>
</rdf:RDF>
</metadata>
<g id="text4137" fill="#fff" transform="rotate(161.66)">
<path id="path4153" style="" d="m2.4119-8.5115q0 0.096876-0.096876 0.40688-0.28417 1.0592-0.74272 2.4413l-1.3175 4.1269q-0.10333 0.28417-0.28417 0.47792-0.17438 0.19375-0.51667 0.19375-0.36813 0-0.93001-0.2325l-5.2507-1.9763-0.36167-0.12917q-0.56834-0.19375-0.83959-0.33584-0.27125-0.14854-0.35521-0.27125-0.083959-0.12917-0.083959-0.31646 0-0.20667 0.083959-0.4198l0.14209-0.38105 1.1044-2.7384q0.58126-1.4079 1.014-2.5834 0.13563-0.38105 0.3423-0.70397 0.20667-0.32938 0.58126-0.32938 0.090418 0 0.19375 0.01938 0.10979 0.01292 1.0979 0.20667 0.98814 0.19375 2.1571 0.51022 1.169 0.31 2.719 0.74918 0.53605 0.155 0.73626 0.25834 0.20021 0.10333 0.27771 0.25188 0.16792 0.31646 0.25834 0.49084 0.096876 0.17438 0.071043 0.28417zm-6.9428 0.34875q0 0.08396 0.090418 0.12271t1.8794 0.60709q0.63938 0.20021 1.8471 0.50376l0.13563 0.025834q0.18729 0 0.27771-0.30355l0.03875-0.13563 0.44563-1.1754 0.16792-0.4973q0.12271-0.29709 0.12271-0.38105 0-0.14209-0.16792-0.21313-0.59417-0.24542-1.2077-0.38105-0.61355-0.14209-1.1819-0.31-0.56834-0.17438-1.0656-0.25188-0.14854-0.02583-0.27771-0.02583-0.25834 0-0.36813 0.34876l-0.29709 0.78147-0.32938 0.9171q-0.10979 0.27771-0.10979 0.36813zm4.5984 2.4865q0-0.16146-0.2325-0.21313l-0.11625-0.032292-5.3992-1.6856-0.16146-0.025834q-0.18084 0-0.30355 0.38751l-0.51667 1.2659q-0.14854 0.34875-0.29063 0.71688-0.13563 0.36167-0.21959 0.59417t-0.08396 0.37459q0 0.38751 0.83959 0.64584l0.36167 0.12271 1.9182 0.71043q0.95585 0.34875 1.9182 0.73626 0.43917 0.16792 0.67813 0.16792 0.25188 0 0.38105-0.13563 0.12917-0.14209 0.20667-0.36167l0.85897-2.6673q0.16124-0.5038 0.16124-0.6007zm-2.0344-2.0537q0-0.03875 0.2648-0.80084 0.27125-0.76209 0.34875-0.94293 0.03875-0.090418 0.058126-0.14209 0.025834-0.051667 0.12271-0.051667 0.10979 0 0.22604 0.038751l0.22604 0.064584q0.5748 0.13563 0.67813 0.18084l0.025834 0.025834 0.0064584 0.058126q-0.0064584 0.08396-0.051667 0.20021l-0.077501 0.21959-0.48438 1.324-0.03875 0.096876q-0.058126 0.16146-0.18729 0.16146-0.11625 0-0.87835-0.24542-0.23896-0.071043-0.23896-0.18729z"/>
</g>
</svg>
