<?xml version="1.0" encoding="UTF-8" standalone="no"?>
<!-- Created with Inkscape (http://www.inkscape.org/) -->

<svg
   xmlns:dc="http://purl.org/dc/elements/1.1/"
   xmlns:cc="http://creativecommons.org/ns#"
   xmlns:rdf="http://www.w3.org/1999/02/22-rdf-syntax-ns#"
   xmlns:svg="http://www.w3.org/2000/svg"
   xmlns="http://www.w3.org/2000/svg"
   xmlns:sodipodi="http://sodipodi.sourceforge.net/DTD/sodipodi-0.dtd"
   xmlns:inkscape="http://www.inkscape.org/namespaces/inkscape"
   width="2.6603029mm"
   height="2.8235996mm"
   viewBox="0 0 9.42627 10.00488"
   id="svg2"
   version="1.1"
   inkscape:version="0.91 r13725"
   sodipodi:docname="icon-screenshot.svg">
  <defs
     id="defs4" />
  <sodipodi:namedview
     id="base"
     pagecolor="#ffffff"
     bordercolor="#666666"
     borderopacity="1.0"
     inkscape:pageopacity="0.0"
     inkscape:pageshadow="2"
     inkscape:zoom="31.678384"
     inkscape:cx="13.412988"
     inkscape:cy="3.8127678"
     inkscape:document-units="px"
     inkscape:current-layer="layer1"
     showgrid="false"
     fit-margin-top="0"
     fit-margin-left="0"
     fit-margin-right="0"
     fit-margin-bottom="0"
     inkscape:window-width="1920"
     inkscape:window-height="1017"
     inkscape:window-x="0"
     inkscape:window-y="27"
     inkscape:window-maximized="1" />
  <metadata
     id="metadata7">
    <rdf:RDF>
      <cc:Work
         rdf:about="">
        <dc:format>image/svg+xml</dc:format>
        <dc:type
           rdf:resource="http://purl.org/dc/dcmitype/StillImage" />
        <dc:title></dc:title>
      </cc:Work>
    </rdf:RDF>
  </metadata>
  <g
     inkscape:label="Layer 1"
     inkscape:groupmode="layer"
     id="layer1"
     transform="translate(811.49518,-210.42337)">
    <g
       style="font-style:normal;font-weight:normal;font-size:12.22993374px;line-height:125%;font-family:sans-serif;letter-spacing:0px;word-spacing:0px;fill:#ffffff;fill-opacity:1;stroke:none;stroke-width:1px;stroke-linecap:butt;stroke-linejoin:miter;stroke-opacity:1"
       id="text3381">
      <path
         d="m -802.04357,213.26108 0,3.86963 q 0,0.16721 -0.11943,0.29858 l -1.01518,1.14059 q -0.12541,0.17915 -0.35233,0.17915 l -0.0597,-0.006 -1.70192,-0.1911 q 0.54342,-0.7584 0.54342,-1.69595 0,-0.76437 -0.38815,-1.42722 -0.38219,-0.66882 -1.05698,-1.05101 -0.66883,-0.38816 -1.43917,-0.38816 -0.99727,0 -1.7915,0.62703 -0.79422,0.62105 -1.01518,1.56457 0.20901,-0.47176 0.66883,-0.90769 0.46579,-0.43593 1.03907,-0.69271 0.57925,-0.26276 1.09281,-0.26276 0.66285,0 1.25404,0.35233 0.59717,0.34636 0.93755,0.93158 0.34039,0.58522 0.34039,1.26002 0,0.6091 -0.25679,1.13461 -0.2508,0.51953 -0.71659,0.85992 l -0.51356,0.38218 q -0.68674,0.50759 -1.52875,0.50759 -0.83006,0 -1.50485,-0.48967 -0.66883,-0.49565 -0.91366,-1.30182 l -0.3165,-0.0358 q -0.31053,0 -0.48968,-0.2747 -0.17317,-0.27469 -0.17317,-0.76437 l 0,-2.77681 q 0,-0.71063 0.0717,-1.02116 0.0776,-0.31649 0.24483,-0.59716 0.16721,-0.28664 0.45982,-0.52551 0.29261,-0.23886 0.68077,-0.42995 0.28664,-0.13138 0.62105,-0.13138 l 0.0717,0 0.35233,0.0299 1.86912,0.209 0.76437,-0.51356 0.0597,-0.0179 0.0239,0 1.89301,0.19706 q 0.0537,0 0.0955,0.0418 l 0.69272,0.69869 0.69868,0.0776 q 0.4001,0.0358 0.63896,0.35233 0.23887,0.31649 0.23887,0.78825 z m -8.03187,3.94726 q 0,0.51356 0.26873,0.97935 0.26872,0.45982 0.72257,0.72257 0.45982,0.26275 0.97338,0.26275 0.55536,0 0.99726,-0.26872 0.44788,-0.2747 0.70466,-0.73451 0.26275,-0.45982 0.26275,-0.96741 0,-0.53148 -0.26275,-0.97935 -0.26276,-0.45385 -0.72257,-0.7166 -0.45982,-0.26872 -0.97338,-0.26872 -0.50759,0 -0.97338,0.26872 -0.45982,0.26873 -0.72854,0.72854 -0.26873,0.45385 -0.26873,0.97338 z m 3.4755,0.0597 q -0.0358,0.59119 -0.46578,1.02115 -0.42996,0.42996 -1.0331,0.42996 -0.61508,0 -1.0749,-0.43593 -0.45384,-0.4419 -0.45384,-1.0749 0,-0.45982 0.26275,-0.84797 0.26872,-0.39413 0.72854,-0.57328 -0.29261,0.17915 -0.48967,0.48967 -0.1911,0.30456 -0.1911,0.68077 0,0.59717 0.41205,0.99727 0.41204,0.39413 0.9674,0.39413 0.47774,0 0.85992,-0.3165 0.38816,-0.3165 0.47773,-0.76437 z m -0.99129,-4.47874 2.15576,0.24484 -0.48967,-0.59716 -1.09281,-0.11347 -0.57328,0.46579 z"
         style=""
         id="path3424" />
    </g>
  </g>
</svg>
